<svg xmlns="http://www.w3.org/2000/svg" version="1.1" width="646" height="150">
  <path d="M0 0 C213.18 0 426.36 0 646 0 C646 137.61 646 275.22 646 417 C432.82 417 219.64 417 0 417 C0 279.39 0 141.78 0 0 Z " fill="#FEFEFE" transform="translate(0,0)"/>
  <path d="M0 0 C1.39456867 0.00574201 2.78910972 0.01875397 4.18359375 0.03515625 C6.63796875 0.05578125 9.09234375 0.07640625 11.62109375 0.09765625 C11.62109375 6.69765625 11.62109375 13.29765625 11.62109375 20.09765625 C10.30109375 20.09765625 8.98109375 20.09765625 7.62109375 20.09765625 C7.62109375 14.81765625 7.62109375 9.53765625 7.62109375 4.09765625 C4.98109375 4.09765625 2.34109375 4.09765625 -0.37890625 4.09765625 C-0.37890625 21.58765625 -0.37890625 39.07765625 -0.37890625 57.09765625 C2.26109375 57.09765625 4.90109375 57.09765625 7.62109375 57.09765625 C7.62109375 51.81765625 7.62109375 46.53765625 7.62109375 41.09765625 C8.94109375 41.09765625 10.26109375 41.09765625 11.62109375 41.09765625 C11.62109375 47.69765625 11.62109375 54.29765625 11.62109375 61.09765625 C6.34109375 61.09765625 1.06109375 61.09765625 -4.37890625 61.09765625 C-4.37890625 58.45765625 -4.37890625 55.81765625 -4.37890625 53.09765625 C-5.15492188 53.59136719 -5.9309375 54.08507812 -6.73046875 54.59375 C-15.39500496 59.73250238 -23.52519088 62.66338898 -33.828125 60.609375 C-42.48373464 57.65822428 -49.20248163 51.63078302 -53.7109375 43.77734375 C-56.95641272 36.64417914 -57.74653956 29.23639678 -55.71875 21.6171875 C-52.24339653 12.87614695 -45.97426812 6.37932923 -37.60546875 2.171875 C-29.47858553 -0.53380646 -20.37503257 -0.34276758 -12.62890625 3.41015625 C-9.71685497 5.10545883 -7.04994497 7.04625038 -4.37890625 9.09765625 C-4.39953125 7.79828125 -4.42015625 6.49890625 -4.44140625 5.16015625 C-4.46290079 3.80599992 -4.45038824 2.45009542 -4.37890625 1.09765625 C-3.37890625 0.09765625 -3.37890625 0.09765625 0 0 Z " fill="#F8F8F8" transform="translate(189.37890625,45.90234375)"/>
  <path d="M0 0 C1.98 0 3.96 0 6 0 C21.68348944 34.09390688 21.68348944 34.09390688 27.9375 48.5 C28.34339355 49.43465088 28.74928711 50.36930176 29.16748047 51.33227539 C30.55011835 54.53886385 31.89519577 57.6855873 33 61 C27.72 61 22.44 61 17 61 C12 51.25 12 51.25 12 49 C11.01 49.33 10.02 49.66 9 50 C9.495 51.98 9.495 51.98 10 54 C1.585 54.495 1.585 54.495 -7 55 C-7.99 56.98 -8.98 58.96 -10 61 C-15.61 61 -21.22 61 -27 61 C-25.79669063 57.39007189 -24.70353764 54.14842988 -23.15234375 50.7421875 C-22.79889893 49.96174072 -22.4454541 49.18129395 -22.08129883 48.37719727 C-21.70384521 47.55147217 -21.3263916 46.72574707 -20.9375 45.875 C-20.1274993 44.08989133 -19.3176066 42.30473365 -18.5078125 40.51953125 C-18.09305664 39.60768066 -17.67830078 38.69583008 -17.25097656 37.75634766 C-15.64230725 34.21187527 -14.04857447 30.66079745 -12.45532227 27.109375 C-2.83639019 5.67278037 -2.83639019 5.67278037 0 0 Z " fill="#EDEDED" transform="translate(382,46)"/>
  <path d="M0 0 C1.98 0 3.96 0 6 0 C22.79576231 36.47807029 22.79576231 36.47807029 28.5 49.0625 C28.85441162 49.83819336 29.20882324 50.61388672 29.57397461 51.41308594 C31.02107098 54.6209823 32.14259992 57.57039969 33 61 C27.72 61 22.44 61 17 61 C15.35 57.37 13.7 53.74 12 50 C11.01 50 10.02 50 9 50 C9.495 51.98 9.495 51.98 10 54 C1.585 54.495 1.585 54.495 -7 55 C-7.99 56.98 -8.98 58.96 -10 61 C-15.61 61 -21.22 61 -27 61 C-22.81070323 50.52675808 -18.6135929 40.0957297 -13.77783203 29.90161133 C-10.76389439 23.54343 -7.89069763 17.12385881 -5.02001953 10.69995117 C-4.65634277 9.8876001 -4.29266602 9.07524902 -3.91796875 8.23828125 C-3.59594482 7.51680908 -3.2739209 6.79533691 -2.94213867 6.05200195 C-2.00496658 4.01081734 -1.01599187 2.00295539 0 0 Z " fill="#EEEEEE" transform="translate(267,46)"/>
  <path d="M0 0 C2.79978655 1.60469694 4.99148098 3.32522087 7.1875 5.6875 C6.8575 6.6775 6.5275 7.6675 6.1875 8.6875 C5.51203125 8.26597656 4.8365625 7.84445312 4.140625 7.41015625 C3.24859375 6.86230469 2.3565625 6.31445312 1.4375 5.75 C0.55578125 5.20472656 -0.3259375 4.65945312 -1.234375 4.09765625 C-7.31160531 0.77359543 -14.03812215 1.09595744 -20.8125 1.6875 C-23.82285782 2.61265774 -26.22346394 3.91410299 -28.8125 5.6875 C-29.699375 6.244375 -30.58625 6.80125 -31.5 7.375 C-36.30262986 12.17762986 -39.65399563 18.57024748 -40 25.375 C-39.80491503 35.09377833 -36.24727461 42.36359476 -29.3125 49.125 C-22.33767135 53.48426791 -14.79174159 53.4525109 -6.8125 52.6875 C-3.58037348 51.68966228 -0.71951084 50.41017309 2.1875 48.6875 C1.1975 46.7075 0.2075 44.7275 -0.8125 42.6875 C-1.369375 42.9040625 -1.92625 43.120625 -2.5 43.34375 C-9.00234319 45.71622657 -14.27602973 47.00500853 -21 44.5 C-26.17471668 41.16518259 -29.64852809 37.49605617 -31.8125 31.6875 C-32.53329822 25.30328717 -31.35668274 21.03807265 -27.8125 15.6875 C-25.14261352 12.62689843 -23.66311613 10.97103871 -19.8125 9.6875 C-13.56884501 9.30008706 -7.62935533 9.10223097 -1.8125 11.6875 C-1.4825 11.0275 -1.1525 10.3675 -0.8125 9.6875 C-7.94492435 6.98845188 -15.94950281 6.12952578 -23.32421875 8.4921875 C-28.66487168 11.44226245 -31.90102613 15.94422897 -33.8125 21.6875 C-34.71406371 27.93776377 -34.48552766 33.3679427 -30.8125 38.6875 C-29.16509924 40.3732124 -27.50183922 42.0438186 -25.8125 43.6875 C-25.8125 44.3475 -25.8125 45.0075 -25.8125 45.6875 C-25.214375 45.831875 -24.61625 45.97625 -24 46.125 C-22.25099596 46.5747439 -20.52572977 47.11642341 -18.8125 47.6875 C-12.90468872 48.04920273 -7.53793644 46.9777392 -1.8125 45.6875 C-1.8125 46.6775 -1.8125 47.6675 -1.8125 48.6875 C-6.99996207 52.14580805 -12.71783607 52.24538806 -18.8125 51.6875 C-25.60115794 49.66281254 -31.19901599 45.50157611 -35.20703125 39.65234375 C-38.31771445 33.59585455 -38.83657067 27.37512671 -37.8125 20.6875 C-35.1328993 13.12760527 -30.55088115 8.94610528 -23.8125 4.875 C-17.40837548 2.41296991 -9.26358179 2.35159737 -2.90625 4.8125 C-0.77107823 6.00170959 1.22484746 7.2336833 3.1875 8.6875 C2.46383685 12.03180737 1.37034504 14.03012343 -0.8125 16.6875 C-3.77425123 16.07472388 -5.19308783 15.43377478 -7.8125 13.6875 C-12.67666128 12.95617505 -17.34526157 13.0552337 -21.75 15.375 C-24.89508099 17.74985708 -26.4006228 19.03322959 -27.8125 22.6875 C-28.53746397 29.10860941 -27.48021075 32.40168156 -23.8125 37.6875 C-23.1525 38.0175 -22.4925 38.3475 -21.8125 38.6875 C-21.8125 39.3475 -21.8125 40.0075 -21.8125 40.6875 C-13.07436552 42.39456302 -7.53773301 41.00586042 0.1875 36.6875 C1.41506895 38.42406095 2.61906853 40.17730377 3.8125 41.9375 C4.48539063 42.91203125 5.15828125 43.8865625 5.8515625 44.890625 C7.1875 47.6875 7.1875 47.6875 6.6640625 49.87890625 C2.9366181 54.44453259 -2.65960607 56.2901538 -8.3046875 57.33203125 C-18.20159809 58.30043863 -24.86385081 56.94494723 -32.8125 50.6875 C-40.00900467 43.90042448 -43.91973502 36.59616264 -44.3125 26.625 C-43.97488644 18.11931656 -40.7296394 11.689536 -34.8984375 5.55078125 C-25.10803402 -3.19457917 -12.07476307 -5.79023726 0 0 Z " fill="#252525" transform="translate(176.8125,49.3125)"/>
  <path d="M0 0 C0.99 0 1.98 0 3 0 C3.33 18.81 3.66 37.62 4 57 C6.64 57.33 9.28 57.66 12 58 C12 51.07 12 44.14 12 37 C14.165625 36.896875 16.33125 36.79375 18.5625 36.6875 C25.61852885 36.16061187 30.1759255 35.67925017 35.4375 30.6875 C38.45064281 25.50906841 37.67768411 18.71965389 37 13 C35.83247104 9.68803009 34.21070208 7.73238814 31.15722656 5.88525391 C28.73315133 4.8904942 26.84768982 4.68644961 24.234375 4.5859375 C23.43225586 4.55032715 22.63013672 4.5147168 21.80371094 4.47802734 C20.79598633 4.44402832 19.78826172 4.4100293 18.75 4.375 C15.5325 4.25125 12.315 4.1275 9 4 C9 10.93 9 17.86 9 25 C11.454375 24.855625 13.90875 24.71125 16.4375 24.5625 C17.21150146 24.51939697 17.98550293 24.47629395 18.78295898 24.43188477 C22.18161081 24.50204421 22.18161081 24.50204421 25 23 C25.16666667 20 25.16666667 20 25 17 C23.41727399 15.41727399 21.61965997 15.65264253 19.4375 15.4375 C18.61121094 15.35371094 17.78492188 15.26992188 16.93359375 15.18359375 C16.29550781 15.12300781 15.65742188 15.06242187 15 15 C15 17.31 15 19.62 15 22 C14.01 22 13.02 22 12 22 C12 18.7 12 15.4 12 12 C14.08218362 11.89167831 16.16599129 11.81426459 18.25 11.75 C19.99023438 11.68039062 19.99023438 11.68039062 21.765625 11.609375 C25 12 25 12 27.390625 13.765625 C29.08651729 16.12011624 29.54461683 17.14452314 29.5 20 C29.5103125 20.66 29.520625 21.32 29.53125 22 C28.69992688 25.12968704 27.68833688 26.15889656 25 28 C21.73210562 28.48715833 18.54447022 28.37555654 15.25 28.25 C10.67125 28.12625 10.67125 28.12625 6 28 C6 18.76 6 9.52 6 0 C9.3 -0.0825 12.6 -0.165 16 -0.25 C17.02351563 -0.28641602 18.04703125 -0.32283203 19.1015625 -0.36035156 C25.91660125 -0.44211093 31.5381714 0.62548996 36.55834961 5.51904297 C41.97307828 11.82424481 41.66258 18.16391342 41.21777344 26.10058594 C40.63454324 31.18750403 38.17817443 34.21225307 34.34375 37.359375 C28.32987188 41.07982502 21.84386268 40.28516094 15 40 C15 46.93 15 53.86 15 61 C10.05 61 5.1 61 0 61 C0 40.87 0 20.74 0 0 Z " fill="#212121" transform="translate(420,46)"/>
  <path d="M0 0 C0.99 0 1.98 0 3 0 C3 19.14 3 38.28 3 58 C5.64 57.67 8.28 57.34 11 57 C11.33 50.4 11.66 43.8 12 37 C14.330625 36.9175 16.66125 36.835 19.0625 36.75 C25.02718597 36.411628 29.34159478 35.9172953 34 32 C38.03452986 26.79415502 37.65383663 20.30909894 37 14 C36.2025878 11.24024245 36.2025878 11.24024245 35 9 C34.34 8.67 33.68 8.34 33 8 C33 7.34 33 6.68 33 6 C27.87726701 5.01358378 22.82187387 4.69057915 17.625 4.4375 C13.355625 4.2209375 13.355625 4.2209375 9 4 C9 10.93 9 17.86 9 25 C17.18359338 24.9801751 17.18359338 24.9801751 25 23 C25.04254356 21.00045254 25.04080783 18.99958364 25 17 C23.41727399 15.41727399 21.61965997 15.65264253 19.4375 15.4375 C18.61121094 15.35371094 17.78492188 15.26992188 16.93359375 15.18359375 C16.29550781 15.12300781 15.65742188 15.06242187 15 15 C15 17.31 15 19.62 15 22 C14.01 22 13.02 22 12 22 C12 18.7 12 15.4 12 12 C14.08153935 11.86463978 16.16561206 11.76784535 18.25 11.6875 C19.41015625 11.62949219 20.5703125 11.57148438 21.765625 11.51171875 C25 12 25 12 27.421875 14.26171875 C29.01455032 17.02524697 29.48271511 18.04769119 29 21.125 C28.9175 21.78757812 28.835 22.45015625 28.75 23.1328125 C27.63691765 25.90392376 26.69034983 26.6422924 24 28 C20.90435557 28.35730522 17.86071086 28.28155378 14.75 28.1875 C11.8625 28.125625 8.975 28.06375 6 28 C6 18.76 6 9.52 6 0 C8.825625 -0.04125 11.65125 -0.0825 14.5625 -0.125 C15.43849854 -0.14320801 16.31449707 -0.16141602 17.21704102 -0.18017578 C22.22578213 -0.21524545 26.25652116 0.38494415 31 2 C32.485 2.495 32.485 2.495 34 3 C34 3.66 34 4.32 34 5 C34.598125 5.185625 35.19625 5.37125 35.8125 5.5625 C39.09498454 7.71956127 40.14332631 10.3001629 41 14 C41.61390349 20.66997843 42.20850205 27.43391664 38 33 C33.93920563 37.05119438 30.83691478 39.91167762 24.86328125 40.09765625 C21.57552083 40.06510417 18.28776042 40.03255208 15 40 C15 46.93 15 53.86 15 61 C10.05 61 5.1 61 0 61 C0 40.87 0 20.74 0 0 Z " fill="#222222" transform="translate(469,46)"/>
  <path d="M0 0 C1.98 0 3.96 0 6 0 C21.68348944 34.09390688 21.68348944 34.09390688 27.9375 48.5 C28.34339355 49.43465088 28.74928711 50.36930176 29.16748047 51.33227539 C30.55011835 54.53886385 31.89519577 57.6855873 33 61 C27.72 61 22.44 61 17 61 C12 51.375 12 51.375 12 48 C4.41 48.33 -3.18 48.66 -11 49 C-11.99 50.98 -12.98 52.96 -14 55 C-14.99 55 -15.98 55 -17 55 C-16.36738317 51.30973516 -15.42909641 48.57274103 -14 45 C-5.09 45 3.82 45 13 45 C14.98 48.96 16.96 52.92 19 57 C23.59126893 58.18505747 23.59126893 58.18505747 28 58 C27.50113281 56.97648437 27.00226563 55.95296875 26.48828125 54.8984375 C21.43650222 44.43172665 16.68642873 33.84836367 12.0625 23.1875 C11.63283432 22.20012848 11.63283432 22.20012848 11.19448853 21.19281006 C10.3674209 19.29002984 9.54429633 17.38559807 8.72265625 15.48046875 C8.24578369 14.37598389 7.76891113 13.27149902 7.27758789 12.13354492 C6.049686 9.12186506 4.99036923 6.09697986 4 3 C0.98405965 5.55505642 -0.19725912 8.34626497 -1.70703125 11.9609375 C-2.21169922 13.15589844 -2.71636719 14.35085938 -3.23632812 15.58203125 C-3.76211046 16.84619132 -4.28749983 18.1105149 -4.8125 19.375 C-8.28821215 27.6656087 -11.81970175 35.90805523 -15.62426758 44.05395508 C-17.78708847 48.68550073 -19.89113479 53.34370027 -22 58 C-17.05 57.505 -17.05 57.505 -12 57 C-11.34 55.02 -10.68 53.04 -10 51 C-3.73 51 2.54 51 9 51 C9.33 51.99 9.66 52.98 10 54 C1.585 54.495 1.585 54.495 -7 55 C-7.99 56.98 -8.98 58.96 -10 61 C-15.61 61 -21.22 61 -27 61 C-25.79669063 57.39007189 -24.70353764 54.14842988 -23.15234375 50.7421875 C-22.79889893 49.96174072 -22.4454541 49.18129395 -22.08129883 48.37719727 C-21.70384521 47.55147217 -21.3263916 46.72574707 -20.9375 45.875 C-20.1274993 44.08989133 -19.3176066 42.30473365 -18.5078125 40.51953125 C-18.09305664 39.60768066 -17.67830078 38.69583008 -17.25097656 37.75634766 C-15.64230725 34.21187527 -14.04857447 30.66079745 -12.45532227 27.109375 C-2.83639019 5.67278037 -2.83639019 5.67278037 0 0 Z " fill="#272727" transform="translate(382,46)"/>
  <path d="M0 0 C1.98 0 3.96 0 6 0 C22.79576231 36.47807029 22.79576231 36.47807029 28.5 49.0625 C28.85441162 49.83819336 29.20882324 50.61388672 29.57397461 51.41308594 C31.02107098 54.6209823 32.14259992 57.57039969 33 61 C27.72 61 22.44 61 17 61 C12 50.25 12 50.25 12 48 C4.41 48.33 -3.18 48.66 -11 49 C-11.99 50.98 -12.98 52.96 -14 55 C-14.99 55 -15.98 55 -17 55 C-16.43285316 51.02997214 -15.4760335 48.18460369 -13 45 C-10.27270508 44.43237305 -10.27270508 44.43237305 -7.01953125 44.51171875 C-5.85615234 44.52783203 -4.69277344 44.54394531 -3.49414062 44.56054688 C-1.67172852 44.62338867 -1.67172852 44.62338867 0.1875 44.6875 C1.41404297 44.71005859 2.64058594 44.73261719 3.90429688 44.75585938 C6.93741559 44.81486947 9.96810222 44.89715408 13 45 C13.32871094 45.85464844 13.65742188 46.70929688 13.99609375 47.58984375 C14.47175781 48.69457031 14.94742188 49.79929687 15.4375 50.9375 C15.88996094 52.03964844 16.34242188 53.14179688 16.80859375 54.27734375 C19.32502859 57.4038234 19.91538237 57.45587582 23.72265625 57.87890625 C25.14740594 57.94650647 26.57365411 57.99565542 28 58 C27.73485596 57.43007324 27.46971191 56.86014648 27.1965332 56.27294922 C19.16624873 38.97352966 11.52345154 21.52407117 4 4 C3.34 4 2.68 4 2 4 C1.67314209 4.76965088 1.34628418 5.53930176 1.00952148 6.33227539 C-4.79601542 19.98605702 -10.62278907 33.60107277 -17 47 C-18.68025665 50.66055914 -20.34365642 54.32856561 -22 58 C-20.3953036 57.99397863 -18.79073181 57.94380823 -17.1875 57.875 C-16.29417969 57.85179687 -15.40085938 57.82859375 -14.48046875 57.8046875 C-13.25263672 57.40636719 -13.25263672 57.40636719 -12 57 C-11.01 55.02 -10.02 53.04 -9 51 C-3.06 51 2.88 51 9 51 C9.33 51.99 9.66 52.98 10 54 C1.585 54.495 1.585 54.495 -7 55 C-7.99 56.98 -8.98 58.96 -10 61 C-15.61 61 -21.22 61 -27 61 C-22.81070323 50.52675808 -18.6135929 40.0957297 -13.77783203 29.90161133 C-10.76389439 23.54343 -7.89069763 17.12385881 -5.02001953 10.69995117 C-4.65634277 9.8876001 -4.29266602 9.07524902 -3.91796875 8.23828125 C-3.59594482 7.51680908 -3.2739209 6.79533691 -2.94213867 6.05200195 C-2.00496658 4.01081734 -1.01599187 2.00295539 0 0 Z " fill="#272727" transform="translate(267,46)"/>
  <path d="M0 0 C1.99788438 0.34578768 3.99759451 0.68143549 6 1 C6 1.33 6 1.66 6 2 C4.7315625 2.11214844 4.7315625 2.11214844 3.4375 2.2265625 C-5.42311179 3.25358796 -10.93208485 4.96495796 -16.59375 11.97265625 C-20.53498311 18.00493248 -21.12965104 23.95575327 -20 31 C-17.79840434 37.89574675 -14.11221955 43.0892734 -8 47 C-2.01698643 49.86144127 4.64822528 49.76837498 11 48.125 C14.11013712 47.34676835 14.11013712 47.34676835 15 45 C14.35933594 45.144375 13.71867187 45.28875 13.05859375 45.4375 C4.71902673 47.22721334 -1.23662001 47.80247183 -9 44 C-9 43.34 -9 42.68 -9 42 C-9.5775 41.79375 -10.155 41.5875 -10.75 41.375 C-14.66850794 38.98035626 -16.57583774 35.27248678 -18 31 C-18.96631779 23.64864566 -18.03882472 18.31569891 -13.8125 12.171875 C-9.91127629 7.4971328 -6.72322249 5.31781315 -0.5859375 4.6015625 C5.87753835 4.42466737 10.30398062 4.74513178 16 8 C15.67 8.99 15.34 9.98 15 11 C13.88625 10.505 13.88625 10.505 12.75 10 C6.78422412 8.40912643 -0.07521375 7.53342861 -5.734375 10.37109375 C-9.90312188 13.368279 -12.62019049 17.05568257 -14 22 C-14.63312181 28.54225873 -13.50889645 31.5173493 -10 37 C-10 37.66 -10 38.32 -10 39 C-8.67661368 39.68620031 -7.34050052 40.34786461 -6 41 C-5.2575 41.37125 -4.515 41.7425 -3.75 42.125 C3.38261701 44.39446905 9.27537176 42.61513321 16 40 C17.32 42.31 18.64 44.62 20 47 C11.52465176 51.95727916 3.65210074 53.6755462 -6.265625 51.50390625 C-14.64700153 48.16268182 -19.14601166 41.82170092 -23 34 C-23.875 30.875 -23.875 30.875 -24 28 C-24.103125 26.741875 -24.20625 25.48375 -24.3125 24.1875 C-24.22143365 17.39655185 -20.73668756 10.73668756 -16 6 C-5.73000252 -1.63714358 -5.73000252 -1.63714358 0 0 Z " fill="#EBEBEB" transform="translate(160,51)"/>
  <path d="M0 0 C14.19 0 28.38 0 43 0 C43 4.95 43 9.9 43 15 C36.07 15 29.14 15 22 15 C22 28.2 22 41.4 22 55 C21.01 55 20.02 55 19 55 C19 40.81 19 26.62 19 12 C25.93 12 32.86 12 40 12 C40 9.03 40 6.06 40 3 C27.79 3 15.58 3 3 3 C3 3.99 3 4.98 3 6 C14.22 6 25.44 6 37 6 C37 6.99 37 7.98 37 9 C24.79 9 12.58 9 0 9 C0 6.03 0 3.06 0 0 Z " fill="#1E1E1E" transform="translate(307,46)"/>
  <path d="M0 0 C12.54 0 25.08 0 38 0 C38 10.56 38 21.12 38 32 C35.03 32 32.06 32 29 32 C29 24.41 29 16.82 29 9 C20.42 9 11.84 9 3 9 C3 14.94 3 20.88 3 27 C2.01 27 1.02 27 0 27 C0 20.07 0 13.14 0 6 C10.56 6 21.12 6 32 6 C32 13.26 32 20.52 32 28 C32.99 28 33.98 28 35 28 C35 19.75 35 11.5 35 3 C23.45 3 11.9 3 0 3 C0 2.01 0 1.02 0 0 Z " fill="#1D1D1D" transform="translate(192,75)"/>
  <path d="M0 0 C0.66 0 1.32 0 2 0 C4.20786102 4.94275489 6.41316045 9.88664208 8.61621094 14.83154297 C9.36422535 16.50958219 10.11290891 18.18732332 10.86230469 19.86474609 C18.85043085 37.74749787 18.85043085 37.74749787 22 46 C20.68 46 19.36 46 18 46 C15.71424605 40.93114305 13.43578703 35.85909565 11.1640625 30.78393555 C10.39002533 29.05744953 9.61399301 27.33185658 8.8359375 25.60717773 C7.71871145 23.12975748 6.60867106 20.64922703 5.5 18.16796875 C5.15001953 17.39599655 4.80003906 16.62402435 4.43945312 15.82865906 C2 10.34161512 2 10.34161512 2 7 C1.34 7 0.68 7 0 7 C-0.14695312 7.55945313 -0.29390625 8.11890625 -0.4453125 8.6953125 C-2.6218329 16.47574751 -5.74306634 23.61761704 -9 31 C-4.38 31 0.24 31 5 31 C4.01 28.03 3.02 25.06 2 22 C1.34 22 0.68 22 0 22 C-0.66 24.31 -1.32 26.62 -2 29 C-3.32 28.67 -4.64 28.34 -6 28 C-4.02 23.38 -2.04 18.76 0 14 C0.66 14 1.32 14 2 14 C3.33934716 16.95564708 4.67044247 19.9149378 6 22.875 C6.3815625 23.71675781 6.763125 24.55851562 7.15625 25.42578125 C7.5171875 26.23144531 7.878125 27.03710938 8.25 27.8671875 C8.58515625 28.61081543 8.9203125 29.35444336 9.265625 30.12060547 C10 32 10 32 10 34 C2.08 34 -5.84 34 -14 34 C-13.10498044 29.52490222 -11.92619209 26.28393792 -10.05859375 22.16796875 C-9.77146011 21.53135818 -9.48432648 20.89474762 -9.18849182 20.23884583 C-8.27635209 18.21949002 -7.35705292 16.20348922 -6.4375 14.1875 C-5.8152785 12.8133668 -5.1935286 11.43901995 -4.57226562 10.06445312 C-3.05362805 6.7071451 -1.52855513 3.35280629 0 0 Z " fill="#212121" transform="translate(384,55)"/>
  <path d="M0 0 C4.95 0 9.9 0 15 0 C15 6.6 15 13.2 15 20 C13.68 20 12.36 20 11 20 C11 14.72 11 9.44 11 4 C8.36 4 5.72 4 3 4 C3 21.49 3 38.98 3 57 C5.64 57 8.28 57 11 57 C11 51.72 11 46.44 11 41 C12.32 41 13.64 41 15 41 C15 47.6 15 54.2 15 61 C10.05 61 5.1 61 0 61 C0 40.87 0 20.74 0 0 Z " fill="#323232" transform="translate(186,46)"/>
  <path d="M0 0 C0.66 0 1.32 0 2 0 C4.53062104 5.58505547 7.05735897 11.17184521 9.58056641 16.76025391 C10.43888428 18.65982047 11.29824806 20.5589148 12.15869141 22.45751953 C13.39763437 25.19178787 14.63276518 27.92775082 15.8671875 30.6640625 C16.25059296 31.50804596 16.63399841 32.35202942 17.02902222 33.22158813 C18.92180057 37.4271449 20.64406771 41.58228513 22 46 C20.68 46 19.36 46 18 46 C15.71672158 40.7692581 13.43818244 35.53648797 11.1640625 30.30175781 C10.38933015 28.52026337 9.61329249 26.73933599 8.8359375 24.95898438 C7.72054067 22.40381511 6.60981283 19.84666115 5.5 17.2890625 C5.15001953 16.49005524 4.80003906 15.69104797 4.43945312 14.86782837 C2 9.22774341 2 9.22774341 2 7 C1.34 7 0.68 7 0 7 C-0.12689209 7.72920654 -0.25378418 8.45841309 -0.38452148 9.2097168 C-0.97251315 11.87538788 -1.77464864 14.14084682 -2.84765625 16.64453125 C-3.20537109 17.48564453 -3.56308594 18.32675781 -3.93164062 19.19335938 C-4.30482422 20.05767578 -4.67800781 20.92199219 -5.0625 21.8125 C-5.43955078 22.69615234 -5.81660156 23.57980469 -6.20507812 24.49023438 C-7.13247024 26.6619754 -8.06566531 28.83123679 -9 31 C-4.38 31 0.24 31 5 31 C4.01 28.03 3.02 25.06 2 22 C1.34 22 0.68 22 0 22 C-0.66 24.31 -1.32 26.62 -2 29 C-3.32 28.67 -4.64 28.34 -6 28 C-4.02 23.38 -2.04 18.76 0 14 C0.66 14 1.32 14 2 14 C3.33934716 16.95564708 4.67044247 19.9149378 6 22.875 C6.3815625 23.71675781 6.763125 24.55851562 7.15625 25.42578125 C7.5171875 26.23144531 7.878125 27.03710938 8.25 27.8671875 C8.58515625 28.61081543 8.9203125 29.35444336 9.265625 30.12060547 C10 32 10 32 10 34 C2.08 34 -5.84 34 -14 34 C-13.10498044 29.52490222 -11.92619209 26.28393792 -10.05859375 22.16796875 C-9.77146011 21.53135818 -9.48432648 20.89474762 -9.18849182 20.23884583 C-8.27635209 18.21949002 -7.35705292 16.20348922 -6.4375 14.1875 C-5.8152785 12.8133668 -5.1935286 11.43901995 -4.57226562 10.06445312 C-3.05362805 6.7071451 -1.52855513 3.35280629 0 0 Z " fill="#212121" transform="translate(269,55)"/>
  <path d="M0 0 C5.28 0 10.56 0 16 0 C16 15.18 16 30.36 16 46 C18.97 46 21.94 46 25 46 C25 32.47 25 18.94 25 5 C25.99 5 26.98 5 28 5 C28 19.52 28 34.04 28 49 C23.05 49 18.1 49 13 49 C13 33.82 13 18.64 13 3 C8.71 3 4.42 3 0 3 C0 2.01 0 1.02 0 0 Z " fill="#1B1B1B" transform="translate(307,58)"/>
  <path d="M0 0 C3.3 0 6.6 0 10 0 C10 20.13 10 40.26 10 61 C8.68 61 7.36 61 6 61 C6 41.86 6 22.72 6 3 C5.01 3 4.02 3 3 3 C3 10.59 3 18.18 3 26 C2.01 26 1.02 26 0 26 C0 17.42 0 8.84 0 0 Z " fill="#434343" transform="translate(227,46)"/>
  <path d="M0 0 C13.95685258 -0.68828314 13.95685258 -0.68828314 17.6875 1.6875 C21.84070493 5.84070493 23.19672156 8.54751352 23.5 14.4375 C23.39904939 18.18276761 23.1098855 20.60535952 20.75 23.5625 C15.58414583 28.14132528 11.92496279 28.26780023 5.25 28.125 C1.16625 28.063125 1.16625 28.063125 -3 28 C-3 35.26 -3 42.52 -3 50 C-3.99 50 -4.98 50 -6 50 C-6 41.75 -6 33.5 -6 25 C2.625 24.6875 2.625 24.6875 5.30712891 24.61206055 C10.19845409 24.38582437 13.76843938 23.70312626 18 21 C19.2148059 18.57038821 19.23607267 16.83615884 19.3125 14.125 C19.34988281 13.26132812 19.38726562 12.39765625 19.42578125 11.5078125 C19.16072127 8.90059668 19.16072127 8.90059668 17.46484375 6.7265625 C14.16397649 4.41438606 11.14993711 4.3310951 7.25 4.25 C6.55261719 4.22035156 5.85523438 4.19070313 5.13671875 4.16015625 C3.42509187 4.08981542 1.71254185 4.04260054 0 4 C0 2.68 0 1.36 0 0 Z " fill="#292929" transform="translate(481,52)"/>
  <path d="M0 0 C15.18445897 -0.75816993 15.18445897 -0.75816993 21 4 C23.13734362 7.28209037 23.29785177 10.06548355 23.3125 13.9375 C23.32925781 14.95714844 23.34601563 15.97679687 23.36328125 17.02734375 C22.93176588 20.55834589 22.27694963 22.25931317 20 25 C14.76824953 27.98125707 10.48986522 28.39731276 4.5625 28.1875 C2.066875 28.125625 -0.42875 28.06375 -3 28 C-3 35.26 -3 42.52 -3 50 C-3.99 50 -4.98 50 -6 50 C-6 41.75 -6 33.5 -6 25 C3.6875 24.75 3.6875 24.75 6.71362305 24.70214844 C10.80090575 24.54565802 13.47620007 24.28654551 17.11328125 22.296875 C19.42444343 19.48328626 19.61885876 18.10538239 19.5 14.5 C19.4896875 13.5615625 19.479375 12.623125 19.46875 11.65625 C18.90358861 8.4536688 18.48191375 7.13434792 16 5 C13.15433959 4.54281872 10.66383827 4.30478554 7.8125 4.25 C7.06291016 4.22035156 6.31332031 4.19070313 5.54101562 4.16015625 C3.69458693 4.0895921 1.84728739 4.04251524 0 4 C0 2.68 0 1.36 0 0 Z " fill="#242424" transform="translate(432,52)"/>
  <path d="M0 0 C4.96429611 1.24107403 7.13871828 2.76106412 10 7 C12.32300146 11.64600293 11.419914 17.94377521 11 23 C9.5792855 27.05602948 6.66661749 29.82294587 3 32 C-2.64713239 33.92635825 -9.15231933 33.05414519 -15 33 C-15 39.93 -15 46.86 -15 54 C-17.64 54 -20.28 54 -23 54 C-21.68 53.34 -20.36 52.68 -19 52 C-18.67 44.74 -18.34 37.48 -18 30 C-10.4375 29.6875 -10.4375 29.6875 -8.09936523 29.61206055 C-3.11702306 29.35110188 0.60689355 28.42091743 5 26 C7.43399632 22.90582386 7.24032483 19.84180577 7.1875 16 C7.18105469 14.96875 7.17460937 13.9375 7.16796875 12.875 C7.02283915 10.39092125 6.88644663 8.32087844 6 6 C4.7625 5.505 4.7625 5.505 3.5 5 C2.2625 4.505 2.2625 4.505 1 4 C0.1875 1.875 0.1875 1.875 0 0 Z " fill="#E8E8E8" transform="translate(447,50)"/>
  <path d="M0 0 C0.99 0 1.98 0 3 0 C3 8.58 3 17.16 3 26 C-7.56 26 -18.12 26 -29 26 C-29 19.4 -29 12.8 -29 6 C-28.01 6 -27.02 6 -26 6 C-26 11.61 -26 17.22 -26 23 C-17.42 23 -8.84 23 0 23 C0 15.41 0 7.82 0 0 Z " fill="#1A1A1A" transform="translate(221,46)"/>
  <path d="M0 0 C1.99788438 0.34578768 3.99759451 0.68143549 6 1 C6 1.33 6 1.66 6 2 C4.7315625 2.11214844 4.7315625 2.11214844 3.4375 2.2265625 C-5.42311179 3.25358796 -10.93208485 4.96495796 -16.59375 11.97265625 C-20.53498311 18.00493248 -21.12965104 23.95575327 -20 31 C-17.94766444 37.42824045 -14.8361821 41.8312985 -9.35546875 45.74609375 C-8.90816406 46.15988281 -8.46085938 46.57367188 -8 47 C-8 47.99 -8 48.98 -8 50 C-15.59384066 46.62495971 -19.36580481 41.26839037 -23 34 C-23.875 30.875 -23.875 30.875 -24 28 C-24.103125 26.741875 -24.20625 25.48375 -24.3125 24.1875 C-24.22143365 17.39655185 -20.73668756 10.73668756 -16 6 C-5.73000252 -1.63714358 -5.73000252 -1.63714358 0 0 Z " fill="#E4E4E4" transform="translate(160,51)"/>
  <path d="M0 0 C0.66 0.33 1.32 0.66 2 1 C0.563736 6.61448656 -1.8628539 9.8842503 -6.6796875 13.1328125 C-10.01027132 14.37757615 -13.24904 14.21103493 -16.75 14.125 C-17.44738281 14.11597656 -18.14476562 14.10695313 -18.86328125 14.09765625 C-20.57566958 14.07419888 -22.28788004 14.03833104 -24 14 C-23.99476318 14.60062256 -23.98952637 15.20124512 -23.98413086 15.82006836 C-23.96341986 18.52586838 -23.95035875 21.23165177 -23.9375 23.9375 C-23.92912109 24.88302734 -23.92074219 25.82855469 -23.91210938 26.80273438 C-23.90888672 27.70185547 -23.90566406 28.60097656 -23.90234375 29.52734375 C-23.89710693 30.35999756 -23.89187012 31.19265137 -23.88647461 32.05053711 C-24 34 -24 34 -25 35 C-27.67058851 35.14115161 -30.32432238 35.04247107 -33 35 C-33 34.67 -33 34.34 -33 34 C-30.525 33.505 -30.525 33.505 -28 33 C-27.67 25.74 -27.34 18.48 -27 11 C-18.875 10.75 -18.875 10.75 -16.35107422 10.70214844 C-11.1796902 10.46770249 -8.09659892 9.40560633 -4 6 C-2.53434522 4.39155065 -2.53434522 4.39155065 -1.625 2.75 C-1.08875 1.8425 -0.5525 0.935 0 0 Z " fill="#DDDDDD" transform="translate(505,69)"/>
  <path d="M0 0 C0.66 0 1.32 0 2 0 C3.33934716 2.95564708 4.67044247 5.9149378 6 8.875 C6.3815625 9.71675781 6.763125 10.55851562 7.15625 11.42578125 C7.5171875 12.23144531 7.878125 13.03710938 8.25 13.8671875 C8.58515625 14.61081543 8.9203125 15.35444336 9.265625 16.12060547 C10 18 10 18 10 20 C9.01 20 8.02 20 7 20 C6.16209211 18.21046815 5.32980604 16.41830305 4.5 14.625 C4.0359375 13.62726563 3.571875 12.62953125 3.09375 11.6015625 C2 9 2 9 2 7 C1.34 7 0.68 7 0 7 C-0.19335938 7.67546875 -0.38671875 8.3509375 -0.5859375 9.046875 C-0.84632813 9.93890625 -1.10671875 10.8309375 -1.375 11.75 C-1.63023437 12.63171875 -1.88546875 13.5134375 -2.1484375 14.421875 C-2.9209934 16.76080572 -3.83625676 18.83442562 -5 21 C-4.01 21.33 -3.02 21.66 -2 22 C-1.01 18.535 -1.01 18.535 0 15 C0.66 15 1.32 15 2 15 C5 20.625 5 20.625 5 24 C0.38 24 -4.24 24 -9 24 C-6.41874331 15.82602049 -3.22988119 7.93359166 0 0 Z " fill="#E8E8E8" transform="translate(269,62)"/>
  <path d="M0 0 C0.66 0 1.32 0 2 0 C3.33934716 2.95564708 4.67044247 5.9149378 6 8.875 C6.3815625 9.71675781 6.763125 10.55851562 7.15625 11.42578125 C7.5171875 12.23144531 7.878125 13.03710938 8.25 13.8671875 C8.58515625 14.61081543 8.9203125 15.35444336 9.265625 16.12060547 C10 18 10 18 10 20 C2.08 20 -5.84 20 -14 20 C-13.505 18.515 -13.505 18.515 -13 17 C-13 17.66 -13 18.32 -13 19 C-12.01 18.67 -11.02 18.34 -10 18 C-9.67 17.34 -9.34 16.68 -9 16 C-2.07 16.495 -2.07 16.495 5 17 C3.515 12.545 3.515 12.545 2 8 C1.34 8 0.68 8 0 8 C-0.66 10.31 -1.32 12.62 -2 15 C-3.32 14.67 -4.64 14.34 -6 14 C-4.02 9.38 -2.04 4.76 0 0 Z " fill="#2C2C2C" transform="translate(269,69)"/>
  <path d="M0 0 C0.66 0 1.32 0 2 0 C3.33934716 2.95564708 4.67044247 5.9149378 6 8.875 C6.3815625 9.71675781 6.763125 10.55851562 7.15625 11.42578125 C7.5171875 12.23144531 7.878125 13.03710938 8.25 13.8671875 C8.58515625 14.61081543 8.9203125 15.35444336 9.265625 16.12060547 C10 18 10 18 10 20 C2.08 20 -5.84 20 -14 20 C-12.68 19.34 -11.36 18.68 -10 18 C-9.67 17.34 -9.34 16.68 -9 16 C-2.07 16.495 -2.07 16.495 5 17 C3.515 12.545 3.515 12.545 2 8 C1.34 8 0.68 8 0 8 C-0.66 10.31 -1.32 12.62 -2 15 C-3.32 14.67 -4.64 14.34 -6 14 C-4.02 9.38 -2.04 4.76 0 0 Z " fill="#2C2C2C" transform="translate(384,69)"/>
  <path d="M0 0 C7.59 0 15.18 0 23 0 C20 3 20 3 17.9152832 3.34057617 C17.13499756 3.32486572 16.35471191 3.30915527 15.55078125 3.29296875 C14.70322266 3.28330078 13.85566406 3.27363281 12.98242188 3.26367188 C12.10134766 3.23853516 11.22027344 3.21339844 10.3125 3.1875 C9.41982422 3.17396484 8.52714844 3.16042969 7.60742188 3.14648438 C5.40433834 3.11114079 3.20247418 3.06180493 1 3 C0.855625 3.969375 0.71125 4.93875 0.5625 5.9375 C0 9 0 9 -1 10 C-2.68608966 10.07205511 -4.37500659 10.08386068 -6.0625 10.0625 C-6.98160156 10.05347656 -7.90070313 10.04445313 -8.84765625 10.03515625 C-9.55792969 10.02355469 -10.26820313 10.01195312 -11 10 C-10.67 9.34 -10.34 8.68 -10 8 C-9.01 8 -8.02 8 -7 8 C-6.67 7.34 -6.34 6.68 -6 6 C-5.01 6 -4.02 6 -3 6 C-2.01 4.02 -1.02 2.04 0 0 Z " fill="#D6D6D6" transform="translate(371,94)"/>
  <path d="M0 0 C2.24767593 3.3715139 3.92054736 6.90069828 5.625 10.5625 C5.94984375 11.24763672 6.2746875 11.93277344 6.609375 12.63867188 C9 17.75641741 9 17.75641741 9 20 C6.03 20 3.06 20 0 20 C-1.625 17.25 -1.625 17.25 -3 14 C-2.1875 11.625 -2.1875 11.625 -1 10 C-0.34 12.31 0.32 14.62 1 17 C1.99 16.67 2.98 16.34 4 16 C3.44119141 14.89591797 3.44119141 14.89591797 2.87109375 13.76953125 C2.16146484 12.30580078 2.16146484 12.30580078 1.4375 10.8125 C0.72400391 9.36810547 0.72400391 9.36810547 -0.00390625 7.89453125 C-1.0953885 4.72281223 -0.96567452 3.16301775 0 0 Z " fill="#E5E5E5" transform="translate(286,84)"/>
  <path d="M0 0 C7.59 0 15.18 0 23 0 C19.625 3.375 19.625 3.375 15.76953125 3.51171875 C14.96708984 3.54716797 14.16464844 3.58261719 13.33789062 3.61914062 C12.50451172 3.64169922 11.67113281 3.66425781 10.8125 3.6875 C9.96751953 3.72166016 9.12253906 3.75582031 8.25195312 3.79101562 C6.16843351 3.87341471 4.08423784 3.93838645 2 4 C1.01 5.98 0.02 7.96 -1 10 C-4.3 10 -7.6 10 -11 10 C-10.67 9.34 -10.34 8.68 -10 8 C-9.01 8 -8.02 8 -7 8 C-6.67 7.34 -6.34 6.68 -6 6 C-5.01 6 -4.02 6 -3 6 C-2.01 4.02 -1.02 2.04 0 0 Z " fill="#D4D4D4" transform="translate(256,94)"/>
  <path d="M0 0 C1.2065625 0.2475 1.2065625 0.2475 2.4375 0.5 C9.07908327 1.43215204 15.40658605 1.12228323 22 0 C21.67 0.99 21.34 1.98 21 3 C17.52613568 4.15795477 14.72230696 4.16829849 11.0625 4.1875 C9.83660156 4.20167969 8.61070312 4.21585937 7.34765625 4.23046875 C4.24356188 4.01676797 2.58637449 3.63998182 0 2 C0 1.34 0 0.68 0 0 Z " fill="#F5F5F5" transform="translate(152,99)"/>
  <path d="M0 0 C2.6855594 2.6855594 3.06049974 5.37621328 4 9 C6.64 9.33 9.28 9.66 12 10 C12 10.66 12 11.32 12 12 C9.03 12 6.06 12 3 12 C-1.09326923 4.55769231 -1.09326923 4.55769231 -0.62109375 1.734375 C-0.41613281 1.16203125 -0.21117187 0.5896875 0 0 Z " fill="#D3D3D3" transform="translate(398,92)"/>
  <path d="M0 0 C2.35953094 2.35953094 2.49141413 3.77895617 3 7 C5.64 7.33 8.28 7.66 11 8 C11 8.66 11 9.32 11 10 C8.03 10 5.06 10 2 10 C-1.07692308 4.58461538 -1.07692308 4.58461538 -0.6875 1.625 C-0.460625 1.08875 -0.23375 0.5525 0 0 Z " fill="#D0D0D0" transform="translate(284,94)"/>
</svg>
